<?xml version="1.0" encoding="utf-8"?>
<!-- Generator: Adobe Illustrator 22.1.0, SVG Export Plug-In . SVG Version: 6.00 Build 0)  -->
<svg version="1.1" id="Layer_1" xmlns="http://www.w3.org/2000/svg" xmlns:xlink="http://www.w3.org/1999/xlink" x="0px" y="0px"
	 viewBox="0 0 132 57" style="enable-background:new 0 0 132 57;" xml:space="preserve">
<style type="text/css">
	.st0{fill:#FDDD00;}
	.st1{fill:#FFFFFF;}
</style>
<image style="overflow:visible;enable-background:new    ;" width="132" height="120" xlink:href="4E549E5E.png"  transform="matrix(1 0 0 1 229.9876 -91.5)">
</image>
<g>
	<g>
		<polygon class="st0" points="10,22.5 10.6,34.1 11.8,35.3 22.1,29.3 22.1,27.5 12.7,21.3 		"/>
		<path class="st1" d="M11.5,36.5c-0.3,0-0.6-0.1-0.9-0.3C10,36,9.6,35.3,9.6,34.6V21.7c0-0.7,0.4-1.3,0.9-1.6
			c0.6-0.3,1.3-0.3,1.9,0l11.2,6.5c0.6,0.3,0.9,0.9,0.9,1.6s-0.4,1.3-0.9,1.6l-11.2,6.4C12.2,36.5,11.8,36.5,11.5,36.5z M11.7,22.1
			v12.2l10.6-6.1L11.7,22.1z"/>
		<path class="st1" d="M25,33.9l-8.4,4.9c-0.5,0.3-1.1,0.1-1.4-0.4l0,0c-0.3-0.5-0.1-1.1,0.4-1.4l8.4-4.9c0.5-0.3,1.1-0.1,1.4,0.4
			l0,0C25.6,33,25.5,33.6,25,33.9z"/>
		<path class="st1" d="M15.4,16.9l8.4,4.9c0.5,0.3,0.7,0.9,0.4,1.4l0,0c-0.3,0.5-0.9,0.7-1.4,0.4l-8.4-4.9c-0.5-0.3-0.7-0.9-0.4-1.4
			l0,0C14.2,16.7,14.9,16.6,15.4,16.9z"/>
		<path class="st1" d="M5.6,32.9v-9.7c0-0.6,0.4-1,1-1l0,0c0.6,0,1,0.4,1,1v9.7c0,0.6-0.4,1-1,1l0,0C6,33.9,5.6,33.4,5.6,32.9z"/>
		<path class="st1" d="M15.4,43.8c-0.5,0-1.1-0.1-1.5-0.4L3,37.2c-0.9-0.6-1.5-1.6-1.5-2.6V23.2c0-0.6,0.4-1,1-1s1,0.4,1,1v11.3
			c0,0.3,0.2,0.6,0.4,0.8l11,6.3c0.3,0.2,0.6,0.2,0.9,0l11-6.3c0.3-0.2,0.4-0.5,0.4-0.8V21.9c0-0.3-0.2-0.6-0.4-0.8l-11.4-6.6
			l-6.5,3.7l13.6,7.8c0.5,0.3,0.7,0.9,0.4,1.4c-0.3,0.5-0.9,0.7-1.4,0.4l-13.9-8c-0.6-0.4-0.9-0.9-0.9-1.6c0-0.7,0.4-1.3,0.9-1.6
			l6.9-3.9c0.6-0.3,1.3-0.3,1.8,0l11.5,6.6c0.9,0.6,1.5,1.5,1.5,2.6v12.6c0,1.1-0.6,2.1-1.5,2.6l-11,6.3
			C16.5,43.7,16,43.8,15.4,43.8z M15.6,14.4L15.6,14.4L15.6,14.4z"/>
	</g>
	<g>
		<path class="st1" d="M37.5,21.8c0.3,0,0.5,0.1,0.7,0.3c0.2,0.2,0.3,0.4,0.3,0.7v9.5c0,0.3-0.1,0.5-0.3,0.7s-0.4,0.3-0.8,0.3
			c-0.3,0-0.6-0.1-0.8-0.3c-0.2-0.2-0.3-0.4-0.3-0.7v-9.5c0-0.3,0.1-0.5,0.3-0.7C36.9,21.9,37.2,21.8,37.5,21.8z M37.4,26.6h7.4v1.9
			h-7.4V26.6z M44.8,21.8c0.3,0,0.6,0.1,0.8,0.3c0.2,0.2,0.3,0.4,0.3,0.7v9.5c0,0.3-0.1,0.5-0.3,0.7c-0.2,0.2-0.4,0.3-0.8,0.3
			c-0.3,0-0.5-0.1-0.7-0.3c-0.2-0.2-0.3-0.4-0.3-0.7v-9.5c0-0.3,0.1-0.5,0.3-0.7C44.2,21.9,44.5,21.8,44.8,21.8z"/>
		<path class="st1" d="M52.4,33.5c-0.9,0-1.8-0.2-2.5-0.6c-0.7-0.4-1.2-0.9-1.6-1.6c-0.4-0.7-0.6-1.5-0.6-2.3c0-1,0.2-1.8,0.6-2.5
			c0.4-0.7,0.9-1.3,1.6-1.6c0.6-0.4,1.3-0.6,2.1-0.6c0.6,0,1.1,0.1,1.6,0.3c0.5,0.3,0.9,0.6,1.3,0.9c0.4,0.4,0.7,0.9,0.9,1.4
			c0.3,0.5,0.3,1.1,0.3,1.7c0,0.3-0.1,0.5-0.3,0.6c-0.2,0.2-0.4,0.3-0.7,0.3H49L48.5,28h6.1l-0.4,0.3v-0.4c0-0.3-0.1-0.6-0.3-0.9
			c-0.2-0.3-0.4-0.4-0.8-0.6c-0.3-0.1-0.6-0.3-0.9-0.3c-0.3,0-0.6,0.1-0.9,0.1c-0.3,0.1-0.5,0.3-0.8,0.4c-0.2,0.2-0.4,0.5-0.5,0.8
			c-0.1,0.4-0.2,0.8-0.2,1.3c0,0.6,0.1,1.1,0.4,1.5c0.3,0.4,0.6,0.8,0.9,0.9c0.4,0.2,0.8,0.3,1.3,0.3c0.4,0,0.8-0.1,0.9-0.1
			c0.3-0.1,0.4-0.1,0.6-0.3c0.1-0.1,0.3-0.2,0.4-0.3c0.2-0.1,0.4-0.1,0.6-0.1c0.3,0,0.4,0.1,0.6,0.3c0.2,0.2,0.3,0.4,0.3,0.6
			c0,0.3-0.1,0.6-0.4,0.8c-0.3,0.3-0.7,0.4-1.2,0.6C53.5,33.4,52.9,33.5,52.4,33.5z"/>
		<path class="st1" d="M65.1,31.8l-2.4-3l2.3-2.8c0.1-0.1,0.1-0.2,0.2-0.3c0.1-0.1,0.1-0.2,0.1-0.3c0-0.3-0.1-0.4-0.3-0.6
			c-0.2-0.2-0.4-0.3-0.7-0.3s-0.6,0.1-0.8,0.4l-1.9,2.5l-2-2.5c-0.2-0.3-0.5-0.4-0.8-0.4c-0.3,0-0.5,0.1-0.7,0.3
			c-0.2,0.2-0.3,0.4-0.3,0.7c0,0.2,0.1,0.4,0.2,0.6l2.4,3l-2.3,2.8c-0.2,0.2-0.3,0.4-0.3,0.6c0,0.3,0.1,0.4,0.3,0.6
			c0.2,0.2,0.4,0.3,0.6,0.3c0.3,0,0.6-0.1,0.8-0.4l2-2.5l2,2.5c0.2,0.3,0.5,0.4,0.8,0.4c0.3,0,0.5-0.1,0.7-0.3s0.3-0.4,0.3-0.7
			C65.3,32.2,65.2,32,65.1,31.8z"/>
		<path class="st1" d="M74.5,24.4c0.3,0,0.5,0.1,0.7,0.3c0.2,0.2,0.3,0.4,0.3,0.8v7c0,0.3-0.1,0.5-0.3,0.7s-0.4,0.3-0.7,0.3
			c-0.3,0-0.5-0.1-0.7-0.3c-0.2-0.2-0.3-0.4-0.3-0.7v-0.8l0.4,0.1c0,0.1-0.1,0.3-0.3,0.5c-0.1,0.2-0.4,0.4-0.6,0.6
			c-0.3,0.2-0.6,0.4-0.9,0.5c-0.4,0.1-0.8,0.2-1.1,0.2c-0.8,0-1.5-0.2-2.1-0.6c-0.6-0.4-1.1-0.9-1.5-1.6c-0.4-0.7-0.6-1.5-0.6-2.4
			c0-0.9,0.2-1.7,0.6-2.4c0.4-0.7,0.8-1.2,1.5-1.6c0.6-0.4,1.3-0.6,2-0.6c0.4,0,0.9,0.1,1.3,0.2c0.4,0.1,0.8,0.3,1,0.6
			c0.3,0.2,0.5,0.4,0.7,0.7c0.2,0.3,0.3,0.4,0.3,0.6l-0.6,0.2v-1.2c0-0.3,0.1-0.5,0.3-0.7C73.9,24.5,74.2,24.4,74.5,24.4z
			 M71.2,31.7c0.5,0,0.9-0.1,1.3-0.4c0.4-0.3,0.6-0.6,0.8-1c0.2-0.4,0.3-0.9,0.3-1.4c0-0.5-0.1-1-0.3-1.4c-0.2-0.4-0.5-0.8-0.8-1
			c-0.4-0.3-0.8-0.4-1.3-0.4c-0.4,0-0.9,0.1-1.3,0.4s-0.6,0.6-0.8,1c-0.2,0.4-0.3,0.9-0.3,1.4s0.1,1,0.3,1.4c0.2,0.4,0.5,0.8,0.8,1
			C70.3,31.6,70.7,31.7,71.2,31.7z"/>
		<path class="st1" d="M78.5,24.6c0.2,0,0.4,0.1,0.6,0.1c0.2,0.1,0.3,0.3,0.4,0.4l2.4,5.5l-0.4,0.2l2.5-5.7c0.2-0.4,0.5-0.6,0.9-0.6
			c0.3,0,0.5,0.1,0.7,0.3c0.2,0.2,0.3,0.4,0.3,0.6c0,0.1,0,0.2-0.1,0.3c0,0.1-0.1,0.2-0.1,0.3l-3.1,6.8c-0.2,0.4-0.4,0.6-0.8,0.6
			c-0.2,0.1-0.4,0-0.6-0.1c-0.2-0.1-0.3-0.3-0.4-0.5l-3.1-6.8c0-0.1-0.1-0.1-0.1-0.2c0-0.1-0.1-0.2-0.1-0.3c0-0.2,0.1-0.4,0.3-0.6
			C78,24.6,78.2,24.6,78.5,24.6z"/>
		<path class="st1" d="M88.9,23.5c-0.4,0-0.6-0.1-0.8-0.2c-0.1-0.1-0.3-0.3-0.3-0.6v-0.3c0-0.3,0.1-0.5,0.3-0.6
			c0.2-0.1,0.4-0.2,0.8-0.2c0.4,0,0.6,0.1,0.8,0.2c0.1,0.1,0.3,0.3,0.3,0.6v0.3c0,0.3-0.1,0.5-0.3,0.6
			C89.6,23.4,89.3,23.5,88.9,23.5z M90,32.4c0,0.3-0.1,0.5-0.3,0.7c-0.2,0.2-0.4,0.3-0.7,0.3c-0.3,0-0.5-0.1-0.7-0.3
			s-0.3-0.4-0.3-0.7v-6.8c0-0.3,0.1-0.5,0.3-0.7c0.2-0.2,0.4-0.3,0.7-0.3c0.3,0,0.5,0.1,0.7,0.3c0.2,0.2,0.3,0.4,0.3,0.7V32.4z"/>
		<path class="st1" d="M99.6,21.2c0.3,0,0.5,0.1,0.7,0.3c0.2,0.2,0.3,0.4,0.3,0.8v10.2c0,0.3-0.1,0.5-0.3,0.7
			c-0.2,0.2-0.4,0.3-0.7,0.3c-0.3,0-0.5-0.1-0.7-0.3c-0.2-0.2-0.3-0.4-0.3-0.7v-0.8l0.4,0.1c0,0.1-0.1,0.3-0.3,0.5
			c-0.1,0.2-0.4,0.4-0.6,0.6c-0.3,0.2-0.6,0.4-0.9,0.5c-0.4,0.1-0.8,0.2-1.1,0.2c-0.8,0-1.5-0.2-2.1-0.6c-0.6-0.4-1.1-0.9-1.5-1.6
			c-0.4-0.7-0.6-1.5-0.6-2.4c0-0.9,0.2-1.7,0.6-2.4c0.4-0.7,0.8-1.2,1.5-1.6c0.6-0.4,1.3-0.6,2-0.6c0.4,0,0.9,0.1,1.3,0.2
			c0.4,0.1,0.8,0.3,1,0.6c0.3,0.2,0.5,0.4,0.7,0.7c0.2,0.3,0.3,0.4,0.3,0.6l-0.6,0.2v-4.4c0-0.3,0.1-0.5,0.3-0.7
			C99.1,21.3,99.3,21.2,99.6,21.2z M96.3,31.7c0.5,0,0.9-0.1,1.3-0.4c0.4-0.3,0.6-0.6,0.8-1c0.2-0.4,0.3-0.9,0.3-1.4
			c0-0.5-0.1-1-0.3-1.4c-0.2-0.4-0.5-0.8-0.8-1c-0.4-0.3-0.8-0.4-1.3-0.4c-0.4,0-0.9,0.1-1.3,0.4c-0.4,0.3-0.6,0.6-0.8,1
			C94,28,93.9,28.5,93.9,29s0.1,1,0.3,1.4c0.2,0.4,0.5,0.8,0.8,1C95.4,31.6,95.8,31.7,96.3,31.7z"/>
		<path class="st1" d="M107.3,33.5c-0.9,0-1.8-0.2-2.5-0.6c-0.7-0.4-1.2-0.9-1.6-1.6c-0.4-0.7-0.6-1.5-0.6-2.3c0-1,0.2-1.8,0.6-2.5
			c0.4-0.7,0.9-1.3,1.6-1.6c0.6-0.4,1.3-0.6,2.1-0.6c0.6,0,1.1,0.1,1.6,0.3c0.5,0.3,0.9,0.6,1.3,0.9c0.4,0.4,0.7,0.9,0.9,1.4
			s0.3,1.1,0.3,1.7c0,0.3-0.1,0.5-0.3,0.6c-0.2,0.2-0.4,0.3-0.7,0.3h-6.3l-0.5-1.6h6.1l-0.4,0.3v-0.4c0-0.3-0.1-0.6-0.3-0.9
			s-0.4-0.4-0.8-0.6c-0.3-0.1-0.6-0.3-0.9-0.3c-0.3,0-0.6,0.1-0.9,0.1c-0.3,0.1-0.5,0.3-0.8,0.4c-0.2,0.2-0.4,0.5-0.5,0.8
			c-0.1,0.4-0.2,0.8-0.2,1.3c0,0.6,0.1,1.1,0.4,1.5c0.3,0.4,0.6,0.8,0.9,0.9c0.4,0.2,0.8,0.3,1.3,0.3c0.4,0,0.8-0.1,0.9-0.1
			c0.3-0.1,0.4-0.1,0.6-0.3c0.1-0.1,0.3-0.2,0.4-0.3c0.2-0.1,0.4-0.1,0.6-0.1c0.3,0,0.4,0.1,0.6,0.3c0.2,0.2,0.3,0.4,0.3,0.6
			c0,0.3-0.1,0.6-0.4,0.8s-0.7,0.4-1.2,0.6C108.4,33.4,107.8,33.5,107.3,33.5z"/>
		<path class="st1" d="M121.7,29c0,0.9-0.2,1.7-0.6,2.4c-0.4,0.7-0.9,1.2-1.6,1.6s-1.5,0.6-2.3,0.6s-1.6-0.2-2.3-0.6
			s-1.2-0.9-1.6-1.6c-0.4-0.7-0.6-1.5-0.6-2.4c0-0.9,0.2-1.7,0.6-2.4c0.4-0.7,0.9-1.2,1.6-1.6c0.7-0.4,1.5-0.6,2.3-0.6
			s1.6,0.2,2.3,0.6s1.2,0.9,1.6,1.6C121.5,27.3,121.7,28.1,121.7,29z M119.7,29c0-0.6-0.1-1.1-0.3-1.5c-0.3-0.4-0.5-0.8-0.9-0.9
			c-0.4-0.3-0.8-0.3-1.3-0.3c-0.4,0-0.9,0.1-1.3,0.3c-0.4,0.3-0.7,0.6-0.9,0.9c-0.3,0.4-0.3,0.9-0.3,1.5c0,0.6,0.1,1,0.3,1.5
			c0.3,0.4,0.5,0.8,0.9,0.9c0.4,0.3,0.8,0.3,1.3,0.3c0.4,0,0.9-0.1,1.3-0.3c0.4-0.3,0.7-0.6,0.9-0.9C119.6,30,119.7,29.5,119.7,29z"
			/>
		<path class="st1" d="M123.3,32c-0.1-0.1-0.2-0.4-0.1-0.6c0-0.3,0.1-0.4,0.4-0.6c0.2-0.1,0.4-0.1,0.6-0.1c0.2,0,0.4,0.1,0.6,0.3
			c0.3,0.3,0.6,0.6,1,0.8c0.4,0.2,0.8,0.3,1.3,0.3c0.2,0,0.3-0.1,0.6-0.1c0.2-0.1,0.4-0.1,0.5-0.3c0.1-0.1,0.3-0.4,0.3-0.6
			s-0.1-0.4-0.3-0.6c-0.2-0.1-0.4-0.3-0.6-0.4c-0.3-0.1-0.6-0.2-0.9-0.3c-0.3-0.1-0.7-0.2-1.1-0.3c-0.4-0.1-0.7-0.3-1-0.4
			c-0.3-0.2-0.6-0.4-0.8-0.8c-0.2-0.3-0.3-0.7-0.3-1.2c0-0.6,0.1-1,0.4-1.4s0.7-0.7,1.2-0.9c0.5-0.2,1-0.3,1.5-0.3
			c0.3,0,0.7,0.1,1.1,0.1c0.4,0.1,0.8,0.2,1.1,0.4s0.6,0.4,0.9,0.7c0.1,0.2,0.2,0.4,0.2,0.6c0,0.3-0.1,0.4-0.3,0.6
			c-0.2,0.1-0.4,0.2-0.6,0.2s-0.4-0.1-0.6-0.3c-0.2-0.3-0.4-0.4-0.8-0.6c-0.3-0.1-0.7-0.2-1.1-0.2c-0.2,0-0.3,0-0.5,0.1
			c-0.2,0.1-0.4,0.1-0.5,0.3s-0.2,0.3-0.2,0.6c0,0.3,0.1,0.4,0.3,0.6c0.2,0.1,0.4,0.3,0.7,0.4c0.3,0.1,0.6,0.2,0.9,0.3
			c0.3,0.1,0.7,0.2,1,0.3c0.3,0.1,0.6,0.3,0.9,0.5c0.3,0.2,0.5,0.4,0.7,0.8c0.2,0.3,0.3,0.7,0.3,1.2c0,0.6-0.2,1-0.5,1.5
			c-0.3,0.4-0.8,0.7-1.3,0.9c-0.5,0.2-1,0.3-1.5,0.3c-0.6,0-1.3-0.1-2-0.3C124.3,33,123.7,32.6,123.3,32z"/>
	</g>
</g>
</svg>
