<?xml version="1.0" encoding="utf-8"?>
<!-- Generator: Adobe Illustrator 22.1.0, SVG Export Plug-In . SVG Version: 6.00 Build 0)  -->
<svg version="1.1" id="Layer_1" xmlns="http://www.w3.org/2000/svg" xmlns:xlink="http://www.w3.org/1999/xlink" x="0px" y="0px"
	 viewBox="0 0 132 57" style="enable-background:new 0 0 132 57;" xml:space="preserve">
<style type="text/css">
	.st0{fill:#433F37;}
	.st1{fill:#FDDD00;}
</style>
<image style="overflow:visible;enable-background:new    ;" width="132" height="120" xlink:href="BCAB140.png"  transform="matrix(1 0 0 1 247.1206 -176.5732)">
</image>
<rect x="-206.2" y="-146.3" class="st0" width="132" height="120"/>
<g>
	<g>
		<polygon class="st1" points="10.1,22.9 10.7,34.5 12,35.7 22.2,29.8 22.2,27.9 12.8,21.7 		"/>
		<path d="M11.6,36.9c-0.3,0-0.6-0.1-0.9-0.3c-0.6-0.3-0.9-0.9-0.9-1.6V22.1c0-0.7,0.4-1.3,0.9-1.6c0.6-0.3,1.3-0.3,1.9,0L23.8,27
			c0.6,0.3,0.9,0.9,0.9,1.6s-0.4,1.3-0.9,1.6l-11.2,6.4C12.3,36.9,12,36.9,11.6,36.9z M11.8,22.5v12.2l10.6-6.1L11.8,22.5z"/>
		<path d="M25.1,34.3l-8.4,4.9c-0.5,0.3-1.1,0.1-1.4-0.4l0,0c-0.3-0.5-0.1-1.1,0.4-1.4l8.4-4.9c0.5-0.3,1.1-0.1,1.4,0.4l0,0
			C25.8,33.4,25.6,34,25.1,34.3z"/>
		<path d="M15.5,17.3l8.4,4.9c0.5,0.3,0.7,0.9,0.4,1.4l0,0c-0.3,0.5-0.9,0.7-1.4,0.4L14.5,19c-0.5-0.3-0.7-0.9-0.4-1.4l0,0
			C14.4,17.1,15,17,15.5,17.3z"/>
		<path d="M5.7,33.3v-9.7c0-0.6,0.4-1,1-1l0,0c0.6,0,1,0.4,1,1v9.7c0,0.6-0.4,1-1,1l0,0C6.2,34.3,5.7,33.9,5.7,33.3z"/>
		<path d="M15.6,44.3c-0.5,0-1.1-0.1-1.5-0.4l-11-6.3C2.2,37,1.6,36,1.6,34.9V23.6c0-0.6,0.4-1,1-1s1,0.4,1,1v11.3
			c0,0.3,0.2,0.6,0.4,0.8L15,42c0.3,0.2,0.6,0.2,0.9,0l11-6.3c0.3-0.2,0.4-0.5,0.4-0.8V22.3c0-0.3-0.2-0.6-0.4-0.8l-11.4-6.6
			l-6.5,3.7l13.6,7.8c0.5,0.3,0.7,0.9,0.4,1.4c-0.3,0.5-0.9,0.7-1.4,0.4l-13.9-8c-0.6-0.4-0.9-0.9-0.9-1.6s0.4-1.3,0.9-1.6l6.9-3.9
			c0.6-0.3,1.3-0.3,1.8,0L28,19.6c0.9,0.6,1.5,1.5,1.5,2.6v12.6c0,1.1-0.6,2.1-1.5,2.6l-11,6.3C16.6,44.1,16.1,44.3,15.6,44.3z
			 M15.7,14.8L15.7,14.8L15.7,14.8z"/>
	</g>
	<g>
		<path d="M37.6,22.3c0.3,0,0.5,0.1,0.7,0.3c0.2,0.2,0.3,0.4,0.3,0.7v9.5c0,0.3-0.1,0.5-0.3,0.7c-0.2,0.2-0.4,0.3-0.8,0.3
			c-0.3,0-0.6-0.1-0.8-0.3c-0.2-0.2-0.3-0.4-0.3-0.7v-9.5c0-0.3,0.1-0.5,0.3-0.7C37.1,22.3,37.3,22.3,37.6,22.3z M37.6,27h7.4v1.9
			h-7.4V27z M44.9,22.3c0.3,0,0.6,0.1,0.8,0.3c0.2,0.2,0.3,0.4,0.3,0.7v9.5c0,0.3-0.1,0.5-0.3,0.7c-0.2,0.2-0.4,0.3-0.8,0.3
			c-0.3,0-0.5-0.1-0.7-0.3c-0.2-0.2-0.3-0.4-0.3-0.7v-9.5c0-0.3,0.1-0.5,0.3-0.7C44.4,22.3,44.6,22.3,44.9,22.3z"/>
		<path d="M52.6,33.9c-0.9,0-1.8-0.2-2.5-0.6s-1.2-0.9-1.6-1.6c-0.4-0.7-0.6-1.5-0.6-2.3c0-1,0.2-1.8,0.6-2.5
			c0.4-0.7,0.9-1.3,1.6-1.6c0.6-0.4,1.3-0.6,2.1-0.6c0.6,0,1.1,0.1,1.6,0.3c0.5,0.3,0.9,0.6,1.3,0.9c0.4,0.4,0.7,0.9,0.9,1.4
			c0.3,0.5,0.3,1.1,0.3,1.7c0,0.3-0.1,0.5-0.3,0.6c-0.2,0.2-0.4,0.3-0.7,0.3h-6.3l-0.5-1.6h6.1l-0.4,0.3v-0.4c0-0.3-0.1-0.6-0.3-0.9
			c-0.2-0.3-0.4-0.4-0.8-0.6c-0.3-0.1-0.6-0.3-0.9-0.3c-0.3,0-0.6,0.1-0.9,0.1c-0.3,0.1-0.5,0.3-0.8,0.4c-0.2,0.2-0.4,0.5-0.5,0.8
			c-0.1,0.4-0.2,0.8-0.2,1.3c0,0.6,0.1,1.1,0.4,1.5c0.3,0.4,0.6,0.8,0.9,0.9c0.4,0.2,0.8,0.3,1.3,0.3c0.4,0,0.8-0.1,0.9-0.1
			c0.3-0.1,0.4-0.1,0.6-0.3c0.1-0.1,0.3-0.2,0.4-0.3c0.2-0.1,0.4-0.1,0.6-0.1c0.3,0,0.4,0.1,0.6,0.3c0.2,0.2,0.3,0.4,0.3,0.6
			c0,0.3-0.1,0.6-0.4,0.8c-0.3,0.3-0.7,0.4-1.2,0.6C53.6,33.9,53.1,33.9,52.6,33.9z"/>
		<path d="M65.2,32.2l-2.4-3l2.3-2.8c0.1-0.1,0.1-0.2,0.2-0.3c0.1-0.1,0.1-0.2,0.1-0.3c0-0.3-0.1-0.4-0.3-0.6
			C64.9,25,64.7,25,64.4,25s-0.6,0.1-0.8,0.4l-1.9,2.5l-2-2.5c-0.2-0.3-0.5-0.4-0.8-0.4c-0.3,0-0.5,0.1-0.7,0.3
			c-0.2,0.2-0.3,0.4-0.3,0.7c0,0.2,0.1,0.4,0.2,0.6l2.4,3l-2.3,2.8c-0.2,0.2-0.3,0.4-0.3,0.6c0,0.3,0.1,0.4,0.3,0.6
			c0.2,0.2,0.4,0.3,0.6,0.3c0.3,0,0.6-0.1,0.8-0.4l2-2.5l2,2.5c0.2,0.3,0.5,0.4,0.8,0.4c0.3,0,0.5-0.1,0.7-0.3
			c0.2-0.2,0.3-0.4,0.3-0.7C65.4,32.6,65.4,32.4,65.2,32.2z"/>
		<path d="M74.6,24.8c0.3,0,0.5,0.1,0.7,0.3c0.2,0.2,0.3,0.4,0.3,0.8v7c0,0.3-0.1,0.5-0.3,0.7c-0.2,0.2-0.4,0.3-0.7,0.3
			c-0.3,0-0.5-0.1-0.7-0.3c-0.2-0.2-0.3-0.4-0.3-0.7V32l0.4,0.1c0,0.1-0.1,0.3-0.3,0.5c-0.1,0.2-0.4,0.4-0.6,0.6
			c-0.3,0.2-0.6,0.4-0.9,0.5s-0.8,0.2-1.1,0.2c-0.8,0-1.5-0.2-2.1-0.6c-0.6-0.4-1.1-0.9-1.5-1.6S67,30.3,67,29.3
			c0-0.9,0.2-1.7,0.6-2.4c0.4-0.7,0.8-1.2,1.5-1.6c0.6-0.4,1.3-0.6,2-0.6c0.4,0,0.9,0.1,1.3,0.2c0.4,0.1,0.8,0.3,1,0.6
			c0.3,0.2,0.5,0.4,0.7,0.7c0.2,0.3,0.3,0.4,0.3,0.6l-0.6,0.2v-1.2c0-0.3,0.1-0.5,0.3-0.7C74.1,24.9,74.3,24.8,74.6,24.8z
			 M71.3,32.1c0.5,0,0.9-0.1,1.3-0.4c0.4-0.3,0.6-0.6,0.8-1c0.2-0.4,0.3-0.9,0.3-1.4s-0.1-1-0.3-1.4c-0.2-0.4-0.5-0.8-0.8-1
			c-0.4-0.3-0.8-0.4-1.3-0.4c-0.4,0-0.9,0.1-1.3,0.4c-0.4,0.3-0.6,0.6-0.8,1c-0.2,0.4-0.3,0.9-0.3,1.4s0.1,1,0.3,1.4
			c0.2,0.4,0.5,0.8,0.8,1C70.4,32,70.8,32.1,71.3,32.1z"/>
		<path d="M78.7,25c0.2,0,0.4,0.1,0.6,0.1c0.2,0.1,0.3,0.3,0.4,0.4l2.4,5.5l-0.4,0.2l2.5-5.7c0.2-0.4,0.5-0.6,0.9-0.6
			c0.3,0,0.5,0.1,0.7,0.3c0.2,0.2,0.3,0.4,0.3,0.6c0,0.1,0,0.2-0.1,0.3c0,0.1-0.1,0.2-0.1,0.3l-3.1,6.8c-0.2,0.4-0.4,0.6-0.8,0.6
			c-0.2,0.1-0.4,0-0.6-0.1c-0.2-0.1-0.3-0.3-0.4-0.5l-3.1-6.8c0-0.1-0.1-0.1-0.1-0.2c0-0.1-0.1-0.2-0.1-0.3c0-0.2,0.1-0.4,0.3-0.6
			C78.1,25,78.3,25,78.7,25z"/>
		<path d="M89.1,23.9c-0.4,0-0.6-0.1-0.8-0.2c-0.1-0.1-0.3-0.3-0.3-0.6v-0.3c0-0.3,0.1-0.5,0.3-0.6c0.2-0.1,0.4-0.2,0.8-0.2
			c0.4,0,0.6,0.1,0.8,0.2c0.1,0.1,0.3,0.3,0.3,0.6v0.3c0,0.3-0.1,0.5-0.3,0.6C89.7,23.8,89.4,23.9,89.1,23.9z M90.1,32.8
			c0,0.3-0.1,0.5-0.3,0.7c-0.2,0.2-0.4,0.3-0.7,0.3c-0.3,0-0.5-0.1-0.7-0.3c-0.2-0.2-0.3-0.4-0.3-0.7V26c0-0.3,0.1-0.5,0.3-0.7
			c0.2-0.2,0.4-0.3,0.7-0.3c0.3,0,0.5,0.1,0.7,0.3c0.2,0.2,0.3,0.4,0.3,0.7V32.8z"/>
		<path d="M99.7,21.6c0.3,0,0.5,0.1,0.7,0.3s0.3,0.4,0.3,0.8v10.2c0,0.3-0.1,0.5-0.3,0.7c-0.2,0.2-0.4,0.3-0.7,0.3
			c-0.3,0-0.5-0.1-0.7-0.3c-0.2-0.2-0.3-0.4-0.3-0.7V32l0.4,0.1c0,0.1-0.1,0.3-0.3,0.5c-0.1,0.2-0.4,0.4-0.6,0.6
			c-0.3,0.2-0.6,0.4-0.9,0.5c-0.4,0.1-0.8,0.2-1.1,0.2c-0.8,0-1.5-0.2-2.1-0.6c-0.6-0.4-1.1-0.9-1.5-1.6c-0.4-0.7-0.6-1.5-0.6-2.4
			c0-0.9,0.2-1.7,0.6-2.4c0.4-0.7,0.8-1.2,1.5-1.6c0.6-0.4,1.3-0.6,2-0.6c0.4,0,0.9,0.1,1.3,0.2c0.4,0.1,0.8,0.3,1,0.6
			c0.3,0.2,0.5,0.4,0.7,0.7c0.2,0.3,0.3,0.4,0.3,0.6l-0.6,0.2v-4.4c0-0.3,0.1-0.5,0.3-0.7C99.2,21.7,99.4,21.6,99.7,21.6z
			 M96.4,32.1c0.5,0,0.9-0.1,1.3-0.4c0.4-0.3,0.6-0.6,0.8-1c0.2-0.4,0.3-0.9,0.3-1.4s-0.1-1-0.3-1.4c-0.2-0.4-0.5-0.8-0.8-1
			c-0.4-0.3-0.8-0.4-1.3-0.4c-0.4,0-0.9,0.1-1.3,0.4c-0.4,0.3-0.6,0.6-0.8,1c-0.2,0.4-0.3,0.9-0.3,1.4s0.1,1,0.3,1.4
			c0.2,0.4,0.5,0.8,0.8,1C95.5,32,95.9,32.1,96.4,32.1z"/>
		<path d="M107.4,33.9c-0.9,0-1.8-0.2-2.5-0.6s-1.2-0.9-1.6-1.6c-0.4-0.7-0.6-1.5-0.6-2.3c0-1,0.2-1.8,0.6-2.5
			c0.4-0.7,0.9-1.3,1.6-1.6c0.6-0.4,1.3-0.6,2.1-0.6c0.6,0,1.1,0.1,1.6,0.3c0.5,0.3,0.9,0.6,1.3,0.9c0.4,0.4,0.7,0.9,0.9,1.4
			c0.3,0.5,0.3,1.1,0.3,1.7c0,0.3-0.1,0.5-0.3,0.6c-0.2,0.2-0.4,0.3-0.7,0.3h-6.3l-0.5-1.6h6.1l-0.4,0.3v-0.4c0-0.3-0.1-0.6-0.3-0.9
			c-0.2-0.3-0.4-0.4-0.8-0.6c-0.3-0.1-0.6-0.3-0.9-0.3c-0.3,0-0.6,0.1-0.9,0.1c-0.3,0.1-0.5,0.3-0.8,0.4c-0.2,0.2-0.4,0.5-0.5,0.8
			c-0.1,0.4-0.2,0.8-0.2,1.3c0,0.6,0.1,1.1,0.4,1.5c0.3,0.4,0.6,0.8,0.9,0.9c0.4,0.2,0.8,0.3,1.3,0.3c0.4,0,0.8-0.1,0.9-0.1
			c0.3-0.1,0.4-0.1,0.6-0.3c0.1-0.1,0.3-0.2,0.4-0.3c0.2-0.1,0.4-0.1,0.6-0.1c0.3,0,0.4,0.1,0.6,0.3c0.2,0.2,0.3,0.4,0.3,0.6
			c0,0.3-0.1,0.6-0.4,0.8c-0.3,0.3-0.7,0.4-1.2,0.6C108.5,33.9,107.9,33.9,107.4,33.9z"/>
		<path d="M121.9,29.4c0,0.9-0.2,1.7-0.6,2.4c-0.4,0.7-0.9,1.2-1.6,1.6c-0.7,0.4-1.5,0.6-2.3,0.6s-1.6-0.2-2.3-0.6
			c-0.7-0.4-1.2-0.9-1.6-1.6c-0.4-0.7-0.6-1.5-0.6-2.4c0-0.9,0.2-1.7,0.6-2.4c0.4-0.7,0.9-1.2,1.6-1.6c0.7-0.4,1.5-0.6,2.3-0.6
			s1.6,0.2,2.3,0.6c0.7,0.4,1.2,0.9,1.6,1.6C121.6,27.7,121.9,28.5,121.9,29.4z M119.8,29.4c0-0.6-0.1-1.1-0.3-1.5
			c-0.3-0.4-0.5-0.8-0.9-0.9c-0.4-0.3-0.8-0.3-1.3-0.3c-0.4,0-0.9,0.1-1.3,0.3c-0.4,0.3-0.7,0.6-0.9,0.9c-0.3,0.4-0.3,0.9-0.3,1.5
			c0,0.6,0.1,1,0.3,1.5c0.3,0.4,0.5,0.8,0.9,0.9c0.4,0.3,0.8,0.3,1.3,0.3c0.4,0,0.9-0.1,1.3-0.3c0.4-0.3,0.7-0.6,0.9-0.9
			C119.7,30.4,119.8,29.9,119.8,29.4z"/>
		<path d="M123.4,32.4c-0.1-0.1-0.2-0.4-0.1-0.6c0-0.3,0.1-0.4,0.4-0.6c0.2-0.1,0.4-0.1,0.6-0.1c0.2,0,0.4,0.1,0.6,0.3
			c0.3,0.3,0.6,0.6,1,0.8c0.4,0.2,0.8,0.3,1.3,0.3c0.2,0,0.3-0.1,0.6-0.1c0.2-0.1,0.4-0.1,0.5-0.3c0.1-0.1,0.3-0.4,0.3-0.6
			s-0.1-0.4-0.3-0.6c-0.2-0.1-0.4-0.3-0.6-0.4c-0.3-0.1-0.6-0.2-0.9-0.3c-0.3-0.1-0.7-0.2-1.1-0.3c-0.4-0.1-0.7-0.3-1-0.4
			c-0.3-0.2-0.6-0.4-0.8-0.8c-0.2-0.3-0.3-0.7-0.3-1.2c0-0.6,0.1-1,0.4-1.4s0.7-0.7,1.2-0.9c0.5-0.2,1-0.3,1.5-0.3
			c0.3,0,0.7,0.1,1.1,0.1c0.4,0.1,0.8,0.2,1.1,0.4c0.3,0.2,0.6,0.4,0.9,0.7c0.1,0.2,0.2,0.4,0.2,0.6c0,0.3-0.1,0.4-0.3,0.6
			c-0.2,0.1-0.4,0.2-0.6,0.2c-0.2,0-0.4-0.1-0.6-0.3c-0.2-0.3-0.4-0.4-0.8-0.6c-0.3-0.1-0.7-0.2-1.1-0.2c-0.2,0-0.3,0-0.5,0.1
			c-0.2,0.1-0.4,0.1-0.5,0.3c-0.1,0.1-0.2,0.3-0.2,0.6c0,0.3,0.1,0.4,0.3,0.6c0.2,0.1,0.4,0.3,0.7,0.4c0.3,0.1,0.6,0.2,0.9,0.3
			c0.3,0.1,0.7,0.2,1,0.3c0.3,0.1,0.6,0.3,0.9,0.5c0.3,0.2,0.5,0.4,0.7,0.8c0.2,0.3,0.3,0.7,0.3,1.2c0,0.6-0.2,1-0.5,1.5
			c-0.3,0.4-0.8,0.7-1.3,0.9c-0.5,0.2-1,0.3-1.5,0.3c-0.6,0-1.3-0.1-2-0.3C124.4,33.4,123.9,33,123.4,32.4z"/>
	</g>
</g>
</svg>
